<svg xmlns="http://www.w3.org/2000/svg" width="128" height="128" viewBox="0 0 128 128">
  <g id="_05" data-name="05" transform="translate(-1466.811 -5491.811)">
    <circle id="Ellipse_2" data-name="Ellipse 2" cx="64" cy="64" r="64" transform="translate(1466.811 5491.812)" fill="#1c75bc"/>
    <path id="Path_5" data-name="Path 5" d="M76.961,20.09a24.028,24.028,0,0,1-7.714,2.03,11.479,11.479,0,0,0,5.684-7.308c-2.436,1.624-5.278,2.436-8.526,3.248A14.178,14.178,0,0,0,56.661,14c-6.9,0-12.992,6.09-12.992,13.4a6.02,6.02,0,0,0,.406,2.842,37.359,37.359,0,0,1-27.608-13.8,12.441,12.441,0,0,0-1.624,6.9A13.324,13.324,0,0,0,20.932,34.3a17.015,17.015,0,0,1-6.09-1.624A13.106,13.106,0,0,0,25.4,45.668a11.241,11.241,0,0,1-3.654.406,5.15,5.15,0,0,1-2.436-.406,13.155,13.155,0,0,0,12.586,9.338,25.817,25.817,0,0,1-16.646,5.684H12a39.613,39.613,0,0,0,20.3,6.09c24.36,0,37.759-20.3,37.759-37.759V27.4A23.6,23.6,0,0,0,76.961,20.09Z" transform="translate(1486.59 5515.908)" fill="#fff"/>
  </g>
</svg>
