<svg xmlns="http://www.w3.org/2000/svg" width="37" height="34" viewBox="0 0 37 34"><g><g><g><g><path fill="#171717" d="M5.48 5.83L2.993 3.343 1.459 4.877 5.48 8.898l7.276-7.275L11.222.089z"/><path fill="none" stroke="#171717" stroke-miterlimit="20" d="M5.48 5.83v0L2.993 3.343v0L1.459 4.877v0L5.48 8.898v0l7.276-7.275v0L11.222.089v0z"/></g><g><path fill="#171717" d="M5.48 17.762l-2.487-2.487-1.534 1.534L5.48 20.83l7.276-7.275-1.534-1.534z"/><path fill="none" stroke="#171717" stroke-miterlimit="20" d="M5.48 17.762v0l-2.487-2.487v0L1.459 16.81v0L5.48 20.83v0l7.276-7.275v0l-1.534-1.534v0z"/></g><g><path fill="#171717" d="M5.48 30.78l-2.487-2.488-1.534 1.534 4.021 4.02 7.276-7.274-1.534-1.534z"/><path fill="none" stroke="#171717" stroke-miterlimit="20" d="M5.48 30.78v0l-2.487-2.488v0l-1.534 1.534v0l4.021 4.02v0l7.276-7.274v0l-1.534-1.534v0z"/></g><g><path fill="#171717" d="M29.344 30.144v-2.17h2.17v2.17z"/><path fill="none" stroke="#171717" stroke-miterlimit="20" d="M29.344 30.144v0-2.17 0h2.17v2.17z"/></g><g><path fill="#171717" d="M33.683 30.144v-2.17h2.17v2.17z"/><path fill="none" stroke="#171717" stroke-miterlimit="20" d="M33.683 30.144v0-2.17 0h2.17v2.17z"/></g><g><path fill="#171717" d="M16.328 30.144v-2.17h10.847v2.17z"/><path fill="none" stroke="#171717" stroke-miterlimit="20" d="M16.328 30.144v0-2.17 0h10.847v2.17z"/></g><g><path fill="#171717" d="M29.344 17.127v-2.17h2.17v2.17z"/><path fill="none" stroke="#171717" stroke-miterlimit="20" d="M29.344 17.127v0-2.17 0h2.17v2.17z"/></g><g><path fill="#171717" d="M33.683 17.127v-2.17h2.17v2.17z"/><path fill="none" stroke="#171717" stroke-miterlimit="20" d="M33.683 17.127v0-2.17 0h2.17v2.17z"/></g><g><path fill="#171717" d="M16.328 17.127v-2.17h10.847v2.17z"/><path fill="none" stroke="#171717" stroke-miterlimit="20" d="M16.328 17.127v0-2.17 0h10.847v2.17z"/></g><g><path fill="#171717" d="M33.683 6.28V4.11h2.17v2.17z"/><path fill="none" stroke="#171717" stroke-miterlimit="20" d="M33.683 6.28v0-2.17 0h2.17v2.17z"/></g><g><path fill="#171717" d="M29.344 6.28V4.11h2.17v2.17z"/><path fill="none" stroke="#171717" stroke-miterlimit="20" d="M29.344 6.28v0-2.17 0h2.17v2.17z"/></g><g><path fill="#171717" d="M16.328 6.28V4.11h10.847v2.17z"/><path fill="none" stroke="#171717" stroke-miterlimit="20" d="M16.328 6.28v0-2.17 0h10.847v2.17z"/></g></g></g></g></svg>