<svg xmlns="http://www.w3.org/2000/svg" width="47" height="47" viewBox="0 0 47 47"><g><g><g><path fill="#fff" d="M43.43 43.43H4.162V17.98l18.742 10.928a1.785 1.785 0 0 0 1.799 0L43.43 17.98zM23.796 4.444l17.878 10.428-17.878 10.427L5.918 14.872zm22.312 8.886L24.688.835a1.785 1.785 0 0 0-1.799 0L1.47 13.33c-.545.321-.88.908-.878 1.542v30.343c0 .986.8 1.785 1.785 1.785h42.838c.986 0 1.785-.799 1.785-1.785V14.872a1.785 1.785 0 0 0-.892-1.542z"/></g><g><path fill="#fff" d="M18.441 38.076c0 .985.8 1.785 1.785 1.785h7.14a1.785 1.785 0 1 0 0-3.57h-7.14c-.986 0-1.785.799-1.785 1.785z"/></g></g></g></svg>