<svg xmlns="http://www.w3.org/2000/svg" width="692" height="687" viewBox="0 0 692 687"><defs><clipPath id="ac6ja"><path fill="#fff" d="M0 725V0h692v725z"/></clipPath><mask id="ac6jd" width="2" height="2" x="-1" y="-1"><path fill="#fff" d="M-116-151h733v720h-733z"/><path d="M-81.996-104.547l9.185-9.463c46.116-47.512 122.03-48.626 169.562-2.491l483.672 469.472c47.53 46.136 48.679 122.052 2.564 169.563l-9.185 9.463c-46.115 47.511-122.03 48.626-169.562 2.49L-79.432 65.015c-47.531-46.136-48.679-122.052-2.564-169.562z"/></mask><filter id="ac6jc" width="1164.3" height="1113.99" x="-354.3" y="-344" filterUnits="userSpaceOnUse"><feOffset dx="-45.3" dy="7.99" in="SourceGraphic" result="FeOffset1336Out"/><feGaussianBlur in="FeOffset1336Out" result="FeGaussianBlur1337Out" stdDeviation="73.2 73.2"/></filter><mask id="ac6jf" width="2" height="2" x="-1" y="-1"><path fill="#fff" d="M66-321h627v612H66z"/><path d="M105.668-269.858l9.21-9.438c46.245-47.384 115.371-55.294 154.398-17.667l397.127 382.89c39.026 37.627 33.174 106.543-13.07 153.927l-9.211 9.438c-46.245 47.384-115.371 55.293-154.397 17.667L92.597-115.931c-39.026-37.627-33.174-106.543 13.07-153.927z"/></mask><filter id="ac6je" width="1092.77" height="1012.07" x="-206.77" y="-514" filterUnits="userSpaceOnUse"><feOffset dx="-79.77" dy="14.07" in="SourceGraphic" result="FeOffset1352Out"/><feGaussianBlur in="FeOffset1352Out" result="FeGaussianBlur1353Out" stdDeviation="73.2 73.2"/></filter><clipPath id="ac6jb"><path d="M0 725V0h692v725z"/></clipPath></defs><g><g><g><path fill="#fff" d="M0 725V0h692v725z"/><path fill="none" stroke="#707070" stroke-miterlimit="20" stroke-width="2" d="M0 725v0V0v0h692v725z" clip-path="url(&quot;#ac6ja&quot;)"/></g><g clip-path="url(#ac6jb)"><g><g filter="url(#ac6jc)"><path fill="none" d="M-81.996-104.547l9.185-9.463c46.116-47.512 122.03-48.626 169.562-2.491l483.672 469.472c47.53 46.136 48.679 122.052 2.564 169.563l-9.185 9.463c-46.115 47.511-122.03 48.626-169.562 2.49L-79.432 65.015c-47.531-46.136-48.679-122.052-2.564-169.562z" mask="url(&quot;#ac6jd&quot;)"/><path fill="#285070" fill-opacity=".05" d="M-81.996-104.547l9.185-9.463c46.116-47.512 122.03-48.626 169.562-2.491l483.672 469.472c47.53 46.136 48.679 122.052 2.564 169.563l-9.185 9.463c-46.115 47.511-122.03 48.626-169.562 2.49L-79.432 65.015c-47.531-46.136-48.679-122.052-2.564-169.562z"/></g><path fill="#fff" d="M-81.996-104.547l9.185-9.463c46.116-47.512 122.03-48.626 169.562-2.491l483.672 469.472c47.53 46.136 48.679 122.052 2.564 169.563l-9.185 9.463c-46.115 47.511-122.03 48.626-169.562 2.49L-79.432 65.015c-47.531-46.136-48.679-122.052-2.564-169.562z"/></g><g><g filter="url(#ac6je)"><path fill="none" d="M105.668-269.858l9.21-9.438c46.245-47.384 115.371-55.294 154.398-17.667l397.127 382.89c39.026 37.627 33.174 106.543-13.07 153.927l-9.211 9.438c-46.245 47.384-115.371 55.293-154.397 17.667L92.597-115.931c-39.026-37.627-33.174-106.543 13.07-153.927z" mask="url(&quot;#ac6jf&quot;)"/><path fill="#285070" fill-opacity=".04" d="M105.668-269.858l9.21-9.438c46.245-47.384 115.371-55.294 154.398-17.667l397.127 382.89c39.026 37.627 33.174 106.543-13.07 153.927l-9.211 9.438c-46.245 47.384-115.371 55.293-154.397 17.667L92.597-115.931c-39.026-37.627-33.174-106.543 13.07-153.927z"/></g><path fill="#fff" d="M105.668-269.858l9.21-9.438c46.245-47.384 115.371-55.294 154.398-17.667l397.127 382.89c39.026 37.627 33.174 106.543-13.07 153.927l-9.211 9.438c-46.245 47.384-115.371 55.293-154.397 17.667L92.597-115.931c-39.026-37.627-33.174-106.543 13.07-153.927z"/></g></g></g></g></svg>