<svg xmlns="http://www.w3.org/2000/svg" width="110" height="74" viewBox="0 0 110 74"><g><g><g><g><path fill="#cae7fe" d="M.538 63.46l25.444-4.41 6.905-24.845 25.445-4.41L65.24 4.95 90.686.537"/></g><g><path fill="#cae7fe" d="M19.314 73.463l25.445-4.41 6.905-24.844 25.445-4.41 6.906-24.847 25.447-4.412"/><path fill="none" stroke="#231f20" stroke-dasharray="12 12" stroke-linecap="round" stroke-linejoin="round" stroke-miterlimit="20" stroke-width="1.07" d="M19.314 73.463v0l25.445-4.41v0l6.905-24.844v0l25.445-4.41v0l6.906-24.847v0l25.447-4.412v0"/></g></g><g><path fill="#cae7fe" d="M65.239 4.95L90.685.538l-30.05 20.974zm11.87 34.848l-12.723 2.205L79.41 31.516l4.604-16.563 25.447-4.413-30.05 20.976zM60.634 21.512l-2.302 8.284L45.61 32zM32.887 34.206L45.61 32 30.586 42.487zm18.776 10.003l12.723-2.206L49.362 52.49zm-21.077-1.722L25.983 59.05.538 63.46zM49.362 52.49l-4.604 16.564-25.443 4.41z"/></g></g></g></svg>