<svg xmlns="http://www.w3.org/2000/svg" width="37" height="40" viewBox="0 0 37 40"><g><g><g><g><g><path fill="#171717" d="M18.503 26.104a1.229 1.229 0 0 0 1.648-.568 1.235 1.235 0 0 0-.568-1.65c-3.699-1.802-8.328-5.159-9.378-10.915-.365-2.009.06-4.987 1.833-7.111 1.477-1.77 3.605-2.668 6.323-2.668 4.211 0 7.238 2.439 8.096 6.523.856 4.074-.828 9.32-5.703 11.464a1.234 1.234 0 0 0 .994 2.258c6.078-2.672 8.185-9.18 7.124-14.23-1.1-5.232-5.127-8.482-10.51-8.482-4.34 0-6.864 1.933-8.217 3.554-2.44 2.924-2.8 6.748-2.366 9.133.977 5.36 4.686 9.75 10.724 12.692z"/></g><g><path fill="#171717" d="M35.188 36.808H2.516c-.285-4.419.541-7.802 2.462-10.07a8.117 8.117 0 0 1 4.38-2.67c2.022 3.769 5.31 5.99 8.943 5.99 3.56 0 6.799-2.19 8.82-5.911 2.046.635 6.941 2.91 6.508 10.048a1.233 1.233 0 0 0 1.156 1.306 1.243 1.243 0 0 0 1.307-1.156c.671-11.064-9.332-12.834-9.433-12.85a1.228 1.228 0 0 0-1.32.701c-1.577 3.429-4.143 5.395-7.039 5.395-2.904 0-5.566-2.016-7.119-5.395a1.236 1.236 0 0 0-1.184-.716c-.161.01-3.969.244-6.861 3.618C.578 28.08-.425 32.478.155 38.166c.063.63.594 1.109 1.226 1.109h33.807a1.234 1.234 0 1 0 0-2.467z"/></g><g><path fill="#171717" d="M23.785 14.503a1.234 1.234 0 0 0-1.744.042c-.73.765-2.032 1.237-3.485 1.262-1.581.015-3.015-.457-3.869-1.293a1.234 1.234 0 1 0-1.726 1.763c1.283 1.257 3.32 1.998 5.475 1.998l.162-.001c2.13-.037 4.036-.775 5.229-2.027a1.233 1.233 0 0 0-.042-1.744z"/></g></g></g></g></g></svg>