<svg xmlns="http://www.w3.org/2000/svg" width="48" height="48" viewBox="0 0 48 48"><g><g><g><path fill="#fff" d="M43.415 33.416a1.371 1.371 0 1 0-1.321 2.404c1.634.897 2.57 1.892 2.57 2.73 0 1.024-1.45 2.611-5.523 3.995-4.024 1.367-9.401 2.12-15.141 2.12s-11.117-.753-15.141-2.12c-4.073-1.384-5.524-2.971-5.524-3.995 0-.838.937-1.833 2.57-2.73a1.371 1.371 0 1 0-1.32-2.405C2.763 34.416.592 36.12.592 38.55c0 1.863 1.281 4.519 7.385 6.592 4.3 1.461 9.99 2.266 16.023 2.266 6.032 0 11.723-.805 16.023-2.266 6.104-2.073 7.385-4.73 7.385-6.592 0-2.43-2.172-4.134-3.993-5.134z"/></g><g><path fill="#fff" d="M13.645 40.562c2.784.787 6.462 1.22 10.355 1.22 3.893 0 7.57-.433 10.355-1.22 3.406-.962 5.134-2.355 5.134-4.14 0-1.784-1.728-3.177-5.134-4.14a26.79 26.79 0 0 0-2.453-.56c-.475.82-.972 1.665-1.492 2.533.967.146 1.876.324 2.701.534 2.507.638 3.423 1.357 3.611 1.633-.188.277-1.104.996-3.61 1.634-2.374.604-5.426.95-8.641.98a6.366 6.366 0 0 1-.942 0c-3.215-.03-6.268-.376-8.64-.98-2.507-.638-3.423-1.357-3.611-1.634.188-.276 1.104-.995 3.61-1.633.826-.21 1.734-.388 2.702-.534-.52-.868-1.018-1.713-1.492-2.533-.875.16-1.697.347-2.453.56-3.407.963-5.134 2.356-5.134 4.14 0 1.785 1.727 3.178 5.134 4.14z"/></g><g><path fill="#fff" d="M18.875 12.466A5.13 5.13 0 0 1 24 7.342a5.13 5.13 0 0 1 5.125 5.124A5.13 5.13 0 0 1 24 17.591a5.13 5.13 0 0 1-5.125-5.125zM24 36.311c1.22 0 2.33-.623 2.967-1.665 4.463-7.302 9.783-16.925 9.783-21.304 0-7.03-5.72-12.75-12.75-12.75s-12.75 5.72-12.75 12.75c0 4.379 5.32 14.002 9.783 21.304A3.453 3.453 0 0 0 24 36.311z"/></g></g></g></svg>