<svg xmlns="http://www.w3.org/2000/svg" width="54" height="214" viewBox="0 0 54 214">
  <path id="Combined_Shape" data-name="Combined Shape" d="M48,211a3,3,0,1,1,3,3A3,3,0,0,1,48,211Zm-16,0a3,3,0,1,1,3,3A3,3,0,0,1,32,211Zm-16,0a3,3,0,1,1,3,3A3,3,0,0,1,16,211ZM0,211a3,3,0,1,1,3,3A3,3,0,0,1,0,211Zm48-16a3,3,0,1,1,3,3A3,3,0,0,1,48,195Zm-16,0a3,3,0,1,1,3,3A3,3,0,0,1,32,195Zm-16,0a3,3,0,1,1,3,3A3,3,0,0,1,16,195ZM0,195a3,3,0,1,1,3,3A3,3,0,0,1,0,195Zm48-16a3,3,0,1,1,3,3A3,3,0,0,1,48,179Zm-16,0a3,3,0,1,1,3,3A3,3,0,0,1,32,179Zm-16,0a3,3,0,1,1,3,3A3,3,0,0,1,16,179ZM0,179a3,3,0,1,1,3,3A3,3,0,0,1,0,179Zm48-16a3,3,0,1,1,3,3A3,3,0,0,1,48,163Zm-16,0a3,3,0,1,1,3,3A3,3,0,0,1,32,163Zm-16,0a3,3,0,1,1,3,3A3,3,0,0,1,16,163ZM0,163a3,3,0,1,1,3,3A3,3,0,0,1,0,163Zm48-16a3,3,0,1,1,3,3A3,3,0,0,1,48,147Zm-16,0a3,3,0,1,1,3,3A3,3,0,0,1,32,147Zm-16,0a3,3,0,1,1,3,3A3,3,0,0,1,16,147ZM0,147a3,3,0,1,1,3,3A3,3,0,0,1,0,147Zm48-16a3,3,0,1,1,3,3A3,3,0,0,1,48,131Zm-16,0a3,3,0,1,1,3,3A3,3,0,0,1,32,131Zm-16,0a3,3,0,1,1,3,3A3,3,0,0,1,16,131ZM0,131a3,3,0,1,1,3,3A3,3,0,0,1,0,131Zm48-16a3,3,0,1,1,3,3A3,3,0,0,1,48,115Zm-16,0a3,3,0,1,1,3,3A3,3,0,0,1,32,115Zm-16,0a3,3,0,1,1,3,3A3,3,0,0,1,16,115ZM0,115a3,3,0,1,1,3,3A3,3,0,0,1,0,115ZM48,99a3,3,0,1,1,3,3A3,3,0,0,1,48,99ZM32,99a3,3,0,1,1,3,3A3,3,0,0,1,32,99ZM16,99a3,3,0,1,1,3,3A3,3,0,0,1,16,99ZM0,99a3,3,0,1,1,3,3A3,3,0,0,1,0,99ZM48,83a3,3,0,1,1,3,3A3,3,0,0,1,48,83ZM32,83a3,3,0,1,1,3,3A3,3,0,0,1,32,83ZM16,83a3,3,0,1,1,3,3A3,3,0,0,1,16,83ZM0,83a3,3,0,1,1,3,3A3,3,0,0,1,0,83ZM48,67a3,3,0,1,1,3,3A3,3,0,0,1,48,67ZM32,67a3,3,0,1,1,3,3A3,3,0,0,1,32,67ZM16,67a3,3,0,1,1,3,3A3,3,0,0,1,16,67ZM0,67a3,3,0,1,1,3,3A3,3,0,0,1,0,67ZM48,51a3,3,0,1,1,3,3A3,3,0,0,1,48,51ZM32,51a3,3,0,1,1,3,3A3,3,0,0,1,32,51ZM16,51a3,3,0,1,1,3,3A3,3,0,0,1,16,51ZM0,51a3,3,0,1,1,3,3A3,3,0,0,1,0,51ZM48,35a3,3,0,1,1,3,3A3,3,0,0,1,48,35ZM32,35a3,3,0,1,1,3,3A3,3,0,0,1,32,35ZM16,35a3,3,0,1,1,3,3A3,3,0,0,1,16,35ZM0,35a3,3,0,1,1,3,3A3,3,0,0,1,0,35ZM48,19a3,3,0,1,1,3,3A3,3,0,0,1,48,19ZM32,19a3,3,0,1,1,3,3A3,3,0,0,1,32,19ZM16,19a3,3,0,1,1,3,3A3,3,0,0,1,16,19ZM0,19a3,3,0,1,1,3,3A3,3,0,0,1,0,19ZM48,3a3,3,0,1,1,3,3A3,3,0,0,1,48,3ZM32,3a3,3,0,1,1,3,3A3,3,0,0,1,32,3ZM16,3a3,3,0,1,1,3,3A3,3,0,0,1,16,3ZM0,3A3,3,0,1,1,3,6,3,3,0,0,1,0,3Z" transform="translate(54 214) rotate(180)" fill="#6dbcfb"/>
</svg>
