<svg xmlns="http://www.w3.org/2000/svg" width="187" height="59" viewBox="0 0 187 59"><defs><linearGradient id="vfgga" x1="-375" x2="-375" y1="-19" y2="-19" gradientUnits="userSpaceOnUse"><stop offset="0" stop-color="#ecf0f1"/><stop offset="1" stop-color="#fefefe"/></linearGradient><clipPath id="vfggb"><path d="M167.224 58.206V39.113h19.092v19.093z"/></clipPath></defs><g><g><g><g><path fill="#262262" d="M3.758 53.59c-.23 0-.384-.153-.384-.384v-9.262H.384c-.245 0-.384-.138-.384-.368v-.353c0-.23.139-.368.384-.368h7.3c.245 0 .368.123.368.368v.353c0 .245-.123.368-.368.368H4.678v9.262c0 .23-.153.383-.383.383z"/></g><g><path fill="#262262" d="M10.43 53.206c0 .245-.138.383-.383.383H9.54c-.23 0-.383-.152-.383-.383v-5.429l-.844-.843c-.245-.245-.245-.475-.015-.706l.184-.183c.2-.2.475-.184.675.015l.98.982c.385-.737 1.06-1.136 1.902-1.136h.261c.476 0 .721.2.721.568v.107c0 .322-.23.537-.598.537h-.276c-1.12 0-1.717.629-1.717 1.84z"/></g><g><path fill="#262262" d="M14.848 51.35c0-.858.614-1.287 1.825-1.287.568 0 1.12.077 1.749.245v.966c0 .874-.752 1.488-1.856 1.488-1.12 0-1.718-.43-1.718-1.243zm4.846 2.148c.2.199.476.214.675.015l.184-.184c.23-.23.23-.46-.015-.706l-.844-.843v-3.481c0-1.656-1.012-2.5-2.975-2.5-1.84 0-2.837.782-2.837 2.209v.092c0 .168.093.26.26.26h.706c.17 0 .246-.077.246-.245v-.107c0-.813.521-1.197 1.64-1.197 1.151 0 1.688.46 1.688 1.427v1.18a7.19 7.19 0 0 0-1.841-.23c-2.008 0-2.975.737-2.975 2.224v.153c0 1.366 1.043 2.193 2.776 2.193 1.058 0 1.948-.43 2.423-1.15z"/></g><g><path fill="#262262" d="M22.103 50.814v-2.055c0-1.886 1.182-2.96 3.206-2.96 1.947 0 3.02.89 3.02 2.53v.262c0 .183-.091.276-.275.276h-.69c-.169 0-.261-.108-.261-.276v-.215c0-1.028-.613-1.549-1.794-1.549-1.273 0-1.917.644-1.917 1.886v2.132c0 1.242.629 1.87 1.917 1.87 1.211 0 1.794-.506 1.794-1.548v-.277c0-.168.092-.275.26-.275h.691c.168 0 .276.107.276.29v.323c0 1.641-1.074 2.53-3.021 2.53-2.024 0-3.206-1.088-3.206-2.944z"/></g><g><path fill="#262262" d="M35.524 53.406c.245.29.674.352.935.122.307-.23.337-.613.077-.92l-2.622-2.93 2.53-2.943c.169-.2.23-.307.23-.476 0-.183-.123-.29-.353-.29h-.444c-.261 0-.384.076-.614.336l-2.408 2.853a.797.797 0 0 0-.23.567c0 .23.062.399.23.583l2.669 3.098zm-4.095.183c.246 0 .384-.137.384-.383v-9.983c0-.322-.215-.537-.537-.537h-.2c-.321 0-.536.215-.536.537v9.983c0 .23.154.383.383.383z"/></g><g><path fill="#262262" d="M43.684 53.59h-.2c-.306 0-.444-.108-.551-.43l-2.3-6.532a.978.978 0 0 1-.077-.338c0-.2.123-.322.368-.322h.445c.29 0 .383.092.506.445l2.132 6.334 2.07-6.334c.122-.353.214-.445.506-.445h.383c.246 0 .368.123.368.322a.965.965 0 0 1-.076.338L43.93 56.41c-.107.322-.43.475-.782.368-.353-.107-.491-.414-.353-.782z"/></g><g><path fill="#262262" d="M53.838 50.876c0 1.21-.675 1.855-1.963 1.855-1.303 0-1.993-.644-1.993-1.855v-2.209c0-1.211.69-1.84 1.978-1.84s1.978.629 1.978 1.84v2.209zm-1.963 2.882c2.086 0 3.266-1.073 3.266-2.974v-2.01c0-1.901-1.18-2.975-3.281-2.975-2.086 0-3.267 1.074-3.267 2.975v2.01c0 1.9 1.181 2.974 3.282 2.974z"/></g><g><path fill="#262262" d="M62.259 46.351c0-.245.138-.383.383-.383h.506c.23 0 .384.153.384.383v5.429l.843.843c.246.246.246.476.016.706l-.184.184c-.2.2-.476.184-.675-.015l-.92-.92c-.445.782-1.273 1.18-2.331 1.18-1.856 0-2.99-1.119-2.99-2.974V46.35c0-.23.153-.383.383-.383h.506c.23 0 .383.153.383.383v4.433c0 1.242.66 1.916 1.84 1.916 1.212 0 1.856-.674 1.856-1.916z"/></g><g><path fill="#262262" d="M67.874 53.206c0 .245-.139.383-.384.383h-.505c-.23 0-.384-.152-.384-.383v-5.429l-.844-.843c-.245-.245-.245-.475-.015-.706l.184-.183c.2-.2.475-.184.675.015l.981.982c.384-.737 1.058-1.136 1.902-1.136h.26c.476 0 .721.2.721.568v.107c0 .322-.23.537-.598.537h-.276c-1.12 0-1.717.629-1.717 1.84z"/></g><g><path fill="#262262" d="M79.93 50.876c0 1.21-.676 1.855-1.964 1.855-1.303 0-1.993-.644-1.993-1.855v-2.209c0-1.211.69-1.84 1.978-1.84s1.978.629 1.978 1.84v2.209zm-1.964 2.882c2.086 0 3.267-1.073 3.267-2.974v-2.01c0-1.901-1.181-2.975-3.282-2.975-2.086 0-3.267 1.074-3.267 2.975v2.01c0 1.9 1.181 2.974 3.282 2.974z"/></g><g><path fill="#262262" d="M84.992 53.206c0 .245-.138.383-.384.383h-.505c-.231 0-.385-.152-.385-.383v-5.429l-.842-.843c-.246-.245-.246-.475-.016-.706l.184-.183c.2-.2.476-.184.674.015l.982.982c.384-.737 1.058-1.136 1.902-1.136h.26c.476 0 .722.2.722.568v.107c0 .322-.23.537-.598.537h-.277c-1.12 0-1.717.629-1.717 1.84z"/></g><g><path fill="#262262" d="M91.71 52.73c-1.243 0-1.933-.658-1.933-1.886v-2.13c0-1.228.69-1.887 1.933-1.887 1.242 0 1.932.659 1.932 1.886v2.131c0 1.228-.69 1.887-1.932 1.887zm3.22-9.507c0-.322-.215-.537-.537-.537h-.214c-.323 0-.537.215-.537.537v3.405c-.476-.552-1.18-.829-2.1-.829-1.887 0-3.053 1.15-3.053 3.006v1.948c0 1.855 1.182 3.005 3.083 3.005 1.12 0 1.948-.413 2.423-1.196l.935.936c.2.199.476.214.675.015l.184-.184c.23-.23.23-.46-.016-.706l-.843-.843z"/></g><g><path fill="#262262" d="M100.56 46.781c1.242 0 1.917.583 1.917 1.733v.736h-3.803v-.72c0-1.151.66-1.749 1.886-1.749zm-3.159 4.125c0 1.856 1.12 2.852 3.251 2.852 1.963 0 2.96-.751 2.96-2.177v-.108c0-.122-.077-.199-.2-.199h-.797c-.138 0-.215.061-.215.2v.091c0 .798-.583 1.197-1.748 1.197-1.35 0-1.978-.568-1.978-1.749v-.797h4.554c.323 0 .476-.153.476-.476v-1.12c0-1.839-1.104-2.82-3.144-2.82-2.024 0-3.159 1.042-3.159 2.898v2.208z"/></g><g><path fill="#262262" d="M107.463 53.206c0 .245-.139.383-.384.383h-.506c-.23 0-.383-.152-.383-.383v-5.429l-.844-.843c-.244-.245-.244-.475-.015-.706l.184-.183c.2-.2.475-.184.675.015l.981.982c.384-.737 1.058-1.136 1.902-1.136h.26c.476 0 .721.2.721.568v.107c0 .322-.23.537-.598.537h-.276c-1.12 0-1.717.629-1.717 1.84z"/></g></g><g><g><path fill="#1c75bc" d="M2.665 18.265h3.177v-7.717H2.665v-5.63H0V35.92h5.842V23.894H2.665zm9.915 0c.696 0 1.31-.16 1.844-.48.533-.32.949-.77 1.247-1.353.3-.582.448-1.25.448-2.005 0-.767-.145-1.446-.437-2.035a3.207 3.207 0 0 0-1.237-1.365c-.532-.32-1.154-.48-1.865-.48H5.842v-5.63H2.665h9.766c1.932 0 3.635.396 5.106 1.185a8.404 8.404 0 0 1 3.422 3.336c.811 1.436 1.216 3.1 1.216 4.99 0 1.89-.405 3.55-1.216 4.978a8.35 8.35 0 0 1-3.422 3.316c-1.471.781-3.174 1.172-5.106 1.172H5.84v-5.63z"/></g><g><path fill="#1c75bc" d="M39.729 35.92h-6.056V4.918h6.056z"/></g><g><path fill="#1c75bc" d="M51.874 4.918h7.143L70.552 28.67l-.512.554V4.918h5.586v30.98h-7.185l-11.493-23.39.512-.554v23.944h-5.586z"/></g><g><path fill="#1c75bc" d="M110.054 18.585v6.055c0 2.303-.466 4.332-1.396 6.087-.932 1.756-2.25 3.113-3.955 4.073-1.706.96-3.682 1.44-5.928 1.44-2.26 0-4.253-.452-5.98-1.355-1.727-.902-3.064-2.177-4.009-3.827-.946-1.648-1.417-3.56-1.417-5.736v-9.146c0-2.303.465-4.328 1.396-6.077.931-1.748 2.249-3.102 3.954-4.061 1.706-.96 3.682-1.44 5.93-1.44 1.846 0 3.552.381 5.115 1.14a10.655 10.655 0 0 1 3.913 3.231c1.045 1.393 1.752 3.007 2.122 4.84h-6.312a4.096 4.096 0 0 0-1.056-1.695 4.944 4.944 0 0 0-1.726-1.087 5.79 5.79 0 0 0-2.057-.373c-1.039 0-1.952.227-2.74.682a4.646 4.646 0 0 0-1.834 1.94c-.434.839-.65 1.806-.65 2.9v9.146c0 .968.22 1.82.66 2.56a4.37 4.37 0 0 0 1.878 1.705c.809.398 1.747.597 2.813.597 1.052 0 1.973-.217 2.762-.65a4.416 4.416 0 0 0 1.823-1.887c.425-.824.639-1.799.639-2.921v-.512h-4.69v-5.63z"/></g></g><g><g><path fill="url(#vfgga)" d="M143.672 58.194c-7.732 0-14-6.268-14-14V14.137c0-7.732 6.268-14 14-14H172.3c7.732 0 14 6.268 14 14v30.057c0 7.732-6.268 14-14 14z"/></g><g><path fill="#1c75bc" d="M162.605 19.273a5.184 5.184 0 1 1 10.367 0 5.184 5.184 0 0 1-10.367 0z"/></g><g><path fill="#262262" d="M157.926 10.943a1.31 1.31 0 1 1-.001 2.62 1.31 1.31 0 0 1 0-2.62zm9.888 4.162a4.161 4.161 0 1 1 0 8.323 4.161 4.161 0 0 1 0-8.323zm-9.889 32.214zm0 0a3.396 3.396 0 0 1-3.301-2.62h6.603a3.396 3.396 0 0 1-3.302 2.62zm-4.872-2.62a4.94 4.94 0 0 0 4.873 4.162 4.94 4.94 0 0 0 4.871-4.162h7.151a3.544 3.544 0 0 0 2.392-6.161 4.03 4.03 0 0 1-1.313-2.967v-7.695a.77.77 0 0 0-1.542.022v7.673a5.576 5.576 0 0 0 1.815 4.104 2.005 2.005 0 0 1-1.352 3.483h-24.045a2.002 2.002 0 0 1-1.352-3.483 5.574 5.574 0 0 0 1.814-4.104v-8.906c0-6.375 5.186-11.56 11.56-11.56 1.747 0 3.472.395 5.044 1.156a5.67 5.67 0 0 0-.859 3.006 5.71 5.71 0 0 0 5.703 5.703 5.71 5.71 0 0 0 5.704-5.703 5.71 5.71 0 0 0-5.703-5.704 5.681 5.681 0 0 0-3.833 1.483 13.069 13.069 0 0 0-3.654-1.26 2.851 2.851 0 1 0-4.805 0c-6.08 1.13-10.698 6.475-10.698 12.88v8.905a4.03 4.03 0 0 1-1.313 2.967 3.545 3.545 0 0 0 2.392 6.161h7.15z"/></g><g><path fill="#fff" d="M168.965 21.384l-1.508-1.51a.645.645 0 0 1-.19-.456v-2.37h1.293v2.102l1.32 1.319z"/></g><g><path d="M149.293 25.878a.77.77 0 0 0-.77.771v.016a.771.771 0 0 0 1.541.022v-.038a.77.77 0 0 0-.77-.77z"/></g><g><path fill="#1c75bc" d="M157.926 17.263a9.39 9.39 0 0 0-8.659 5.73.77.77 0 1 0 1.415.61l.004-.007a7.851 7.851 0 0 1 7.24-4.792.771.771 0 0 0 .021-1.541h-.021z"/></g><g><path fill="#262262" d="M163.632 56.262h-21.947c-5.56 0-10.082-4.523-10.082-10.082V12.15c0-5.56 4.523-10.082 10.082-10.082h32.602c5.559 0 10.081 4.523 10.081 10.082v23.393h1.932V12.15c0-3.209-1.25-6.226-3.519-8.495a11.935 11.935 0 0 0-8.494-3.518h-32.602c-3.209 0-6.225 1.25-8.494 3.518a11.935 11.935 0 0 0-3.519 8.495v34.03c0 3.21 1.25 6.226 3.519 8.495a11.935 11.935 0 0 0 8.494 3.519h21.947z"/></g><g><g><g/><g clip-path="url(#vfggb)"><path fill="#1c75bc" d="M174.366 2.27c5.559 0 10.081 4.523 10.081 10.082v34.03c0 5.56-4.522 10.082-10.081 10.082h-32.602c-5.56 0-10.082-4.523-10.082-10.082v-34.03c0-5.56 4.523-10.082 10.082-10.082zm8.494 52.607a11.933 11.933 0 0 0 3.519-8.495v-34.03c0-3.21-1.25-6.226-3.519-8.495a11.934 11.934 0 0 0-8.494-3.519h-32.602c-3.209 0-6.225 1.25-8.494 3.519a11.936 11.936 0 0 0-3.519 8.495v34.03c0 3.209 1.25 6.226 3.519 8.495a11.935 11.935 0 0 0 8.494 3.518h32.602c3.208 0 6.225-1.25 8.494-3.518z"/></g></g></g></g></g></g></svg>