<svg xmlns="http://www.w3.org/2000/svg" width="205" height="64" viewBox="0 0 205 64"><defs><linearGradient id="2koaa" x1="-381" x2="-381" y1="-46" y2="-46" gradientUnits="userSpaceOnUse"><stop offset="0" stop-color="#ecf0f1"/><stop offset="1" stop-color="#fefefe"/></linearGradient><clipPath id="2koab"><path d="M183.745 63.943V42.964h20.979v20.979z"/></clipPath></defs><g><g><g><g><path fill="#262262" d="M4.129 58.87c-.253 0-.421-.168-.421-.42V48.271H.422c-.27 0-.422-.152-.422-.404v-.389c0-.252.152-.404.422-.404h8.02c.27 0 .405.135.405.404v.389c0 .269-.135.404-.404.404H5.14v10.177c0 .253-.168.421-.421.421z"/></g><g><path fill="#262262" d="M11.461 58.45c0 .269-.152.42-.421.42h-.556c-.253 0-.422-.168-.422-.42v-5.966l-.926-.926c-.27-.27-.27-.523-.017-.776l.202-.202c.22-.22.522-.202.741.017l1.079 1.079c.421-.81 1.162-1.248 2.089-1.248h.287c.522 0 .792.22.792.624v.118c0 .354-.253.59-.657.59h-.304c-1.23 0-1.887.69-1.887 2.022z"/></g><g><path fill="#262262" d="M16.315 56.41c0-.943.674-1.415 2.006-1.415.623 0 1.23.085 1.92.27v1.061c0 .96-.825 1.635-2.038 1.635-1.23 0-1.888-.472-1.888-1.365zm5.325 2.36c.219.218.523.235.742.016l.202-.202c.253-.253.253-.505-.017-.775l-.927-.927v-3.825c0-1.82-1.112-2.747-3.269-2.747-2.022 0-3.117.86-3.117 2.427v.101c0 .186.101.286.286.286h.775c.186 0 .27-.084.27-.269v-.118c0-.893.573-1.315 1.803-1.315 1.264 0 1.854.506 1.854 1.568v1.297a7.902 7.902 0 0 0-2.023-.253c-2.207 0-3.268.81-3.268 2.444v.168c0 1.5 1.145 2.41 3.05 2.41 1.162 0 2.14-.472 2.662-1.264z"/></g><g><path fill="#262262" d="M24.287 55.82v-2.257c0-2.073 1.298-3.253 3.522-3.253 2.14 0 3.32.978 3.32 2.781v.287c0 .201-.101.303-.303.303h-.76c-.184 0-.286-.118-.286-.303v-.236c0-1.13-.673-1.702-1.971-1.702-1.398 0-2.106.707-2.106 2.072v2.342c0 1.365.69 2.056 2.106 2.056 1.331 0 1.971-.556 1.971-1.702v-.303c0-.185.102-.303.287-.303h.759c.185 0 .303.118.303.32v.353c0 1.804-1.18 2.78-3.32 2.78-2.224 0-3.522-1.195-3.522-3.235z"/></g><g><path fill="#262262" d="M40.061 58.803c.337-.253.37-.674.085-1.011l-2.882-3.219 2.78-3.235c.186-.219.253-.337.253-.522 0-.202-.135-.32-.387-.32h-.489c-.287 0-.421.084-.674.37L36.1 54.002a.876.876 0 0 0-.252.623c0 .253.067.438.252.64l2.933 3.404c.27.32.74.388 1.027.135zm-5.526.067c.27 0 .42-.151.42-.42V47.48c0-.354-.235-.59-.589-.59h-.219c-.354 0-.59.236-.59.59v10.97c0 .252.169.42.421.42z"/></g><g><path fill="#262262" d="M48 58.87h-.219c-.337 0-.489-.118-.607-.471l-2.527-7.178a1.074 1.074 0 0 1-.084-.37c0-.22.134-.355.404-.355h.49c.319 0 .42.101.555.489l2.342 6.96 2.275-6.96c.135-.388.236-.489.556-.489h.421c.27 0 .404.135.404.354 0 .084-.016.185-.084.37L48.27 61.97c-.118.355-.472.523-.86.405-.387-.117-.539-.455-.387-.86z"/></g><g><path fill="#262262" d="M57 57.927c-1.432 0-2.19-.708-2.19-2.039v-2.426c0-1.332.758-2.022 2.173-2.022 1.416 0 2.174.69 2.174 2.022v2.426c0 1.33-.741 2.039-2.157 2.039zm-3.606-2.14c0 2.089 1.298 3.269 3.606 3.269 2.292 0 3.589-1.18 3.589-3.269V53.58c0-2.089-1.297-3.269-3.606-3.269-2.291 0-3.589 1.18-3.589 3.27v2.207z"/></g><g><path fill="#262262" d="M68.41 50.917c0-.27.151-.421.421-.421h.556c.253 0 .422.168.422.421v5.965l.926.927c.27.27.27.522.017.775l-.202.202c-.22.22-.522.202-.741-.016l-1.011-1.012c-.49.86-1.4 1.298-2.562 1.298-2.038 0-3.286-1.23-3.286-3.269v-4.87c0-.253.17-.421.422-.421h.555c.254 0 .422.168.422.421v4.87c0 1.365.725 2.106 2.022 2.106 1.331 0 2.039-.741 2.039-2.106z"/></g><g><path fill="#262262" d="M74.58 58.45c0 .269-.153.42-.422.42h-.556c-.253 0-.421-.168-.421-.42v-5.966l-.927-.926c-.27-.27-.27-.523-.017-.776l.202-.202c.22-.22.523-.202.742.017l1.078 1.079c.421-.81 1.163-1.248 2.09-1.248h.286c.522 0 .792.22.792.624v.118c0 .354-.253.59-.657.59h-.304c-1.23 0-1.887.69-1.887 2.022z"/></g><g><path fill="#262262" d="M85.669 57.927c-1.432 0-2.19-.708-2.19-2.039v-2.426c0-1.332.758-2.022 2.173-2.022 1.416 0 2.174.69 2.174 2.022v2.426c0 1.33-.742 2.039-2.157 2.039zm0 1.129c2.291 0 3.59-1.18 3.59-3.269V53.58c0-2.089-1.299-3.269-3.607-3.269-2.291 0-3.59 1.18-3.59 3.27v2.207c0 2.089 1.299 3.269 3.607 3.269z"/></g><g><path fill="#262262" d="M93.388 58.45c0 .269-.151.42-.421.42h-.555c-.254 0-.423-.168-.423-.42v-5.966l-.926-.926c-.27-.27-.27-.523-.017-.776l.202-.202c.22-.22.523-.202.741.017l1.08 1.079c.42-.81 1.162-1.248 2.089-1.248h.286c.522 0 .793.22.793.624v.118c0 .354-.253.59-.658.59h-.303c-1.23 0-1.888.69-1.888 2.022z"/></g><g><path fill="#262262" d="M100.77 57.927c-1.365 0-2.123-.725-2.123-2.073v-2.342c0-1.348.758-2.072 2.123-2.072 1.365 0 2.123.724 2.123 2.072v2.342c0 1.348-.758 2.073-2.122 2.073zm3.539-10.448c0-.353-.236-.59-.59-.59h-.236c-.354 0-.59.237-.59.59v3.742c-.522-.607-1.297-.91-2.308-.91-2.072 0-3.353 1.263-3.353 3.302v2.14c0 2.039 1.298 3.303 3.387 3.303 1.23 0 2.14-.455 2.662-1.314l1.028 1.028c.219.218.522.235.74.016l.204-.202c.253-.253.253-.505-.018-.775l-.926-.927z"/></g><g><path fill="#262262" d="M108.422 53.31c0-1.264.726-1.92 2.073-1.92 1.365 0 2.106.64 2.106 1.903v.809h-4.179v-.792zm-1.398 2.612c0 2.039 1.23 3.134 3.572 3.134 2.157 0 3.252-.826 3.252-2.393v-.118c0-.135-.084-.219-.219-.219h-.876c-.152 0-.236.067-.236.22v.1c0 .877-.64 1.315-1.92 1.315-1.484 0-2.175-.624-2.175-1.921v-.876h5.005c.354 0 .523-.169.523-.523v-1.23c0-2.022-1.214-3.1-3.455-3.1-2.224 0-3.47 1.145-3.47 3.184v2.427z"/></g><g><path fill="#262262" d="M118.08 58.45c0 .269-.152.42-.421.42h-.557c-.253 0-.421-.168-.421-.42v-5.966l-.927-.926c-.269-.27-.269-.523-.016-.776l.202-.202c.219-.22.522-.202.74.017l1.08 1.079c.42-.81 1.162-1.248 2.088-1.248h.288c.522 0 .791.22.791.624v.118c0 .354-.253.59-.657.59h-.303c-1.23 0-1.887.69-1.887 2.022z"/></g></g><g><g><path fill="#1c75bc" d="M2.928 20.056h3.49v-8.48h-3.49V5.39H0v34.065H6.42V26.24h-3.49zm10.895 0c.765 0 1.44-.175 2.026-.526a3.61 3.61 0 0 0 1.37-1.488c.329-.64.493-1.374.493-2.203 0-.843-.16-1.589-.48-2.237a3.524 3.524 0 0 0-1.36-1.5c-.585-.351-1.268-.526-2.05-.526H6.42V5.39h7.24c2.123 0 3.994.435 5.61 1.301a9.234 9.234 0 0 1 3.76 3.666c.892 1.578 1.336 3.406 1.336 5.482 0 2.078-.444 3.901-1.335 5.47-.89 1.571-2.143 2.785-3.76 3.644s-3.488 1.288-5.611 1.288h-7.24v-6.185z"/></g><g><path fill="#1c75bc" d="M43.654 39.455H37V5.39h6.654z"/></g><g><path fill="#1c75bc" d="M57 5.39h7.847L77.522 31.49l-.562.61V5.39h6.138v34.04h-7.895L62.575 13.732l.562-.61v26.31H57z"/></g><g><path fill="#1c75bc" d="M120.927 20.407v6.654c0 2.53-.512 4.76-1.535 6.688-1.023 1.93-2.471 3.421-4.345 4.476-1.874 1.054-4.045 1.581-6.513 1.581-2.483 0-4.673-.496-6.571-1.488-1.898-.991-3.367-2.392-4.405-4.205C96.518 32.302 96 30.201 96 27.81V17.76c0-2.53.511-4.755 1.535-6.676 1.023-1.922 2.47-3.409 4.345-4.463 1.874-1.055 4.045-1.582 6.514-1.582 2.03 0 3.904.418 5.622 1.253a11.708 11.708 0 0 1 4.3 3.55c1.147 1.53 1.924 3.304 2.33 5.318h-6.935a4.5 4.5 0 0 0-1.16-1.863 5.432 5.432 0 0 0-1.897-1.194 6.362 6.362 0 0 0-2.26-.41c-1.141 0-2.145.25-3.01.75-.868.5-1.54 1.21-2.016 2.131-.477.922-.715 1.984-.715 3.186v10.05c0 1.064.243 2 .726 2.812.485.812 1.172 1.438 2.063 1.875.89.437 1.92.655 3.092.655 1.155 0 2.167-.237 3.034-.713a4.853 4.853 0 0 0 2.003-2.074c.468-.906.702-1.977.702-3.21v-.562h-5.154v-6.186z"/></g></g><g><g><path fill="url(#2koaa)" d="M163.483 63.93c-11.598 0-21-9.403-21-21V21.136c0-11.598 9.402-21 21-21h20.222c11.598 0 21 9.402 21 21v21.792c0 11.598-9.402 21-21 21z"/></g><g><path fill="#1c75bc" d="M178.67 21.164a5.696 5.696 0 1 1 11.391 0 5.696 5.696 0 0 1-11.391 0z"/></g><g><path fill="#262262" d="M173.528 12.01a1.44 1.44 0 1 1-.001 2.88 1.44 1.44 0 0 1 0-2.88zm10.865 4.574a4.572 4.572 0 1 1 0 9.145 4.572 4.572 0 0 1 0-9.145zM173.527 51.98zm0 0a3.732 3.732 0 0 1-3.627-2.88h7.255a3.731 3.731 0 0 1-3.627 2.88zm-5.353-2.88a5.428 5.428 0 0 0 5.354 4.573c2.7 0 4.945-1.985 5.353-4.572h7.858a3.895 3.895 0 0 0 2.627-6.77 4.428 4.428 0 0 1-1.442-3.26v-8.455a.847.847 0 0 0-1.694.024v8.43a6.127 6.127 0 0 0 1.993 4.51 2.203 2.203 0 0 1-1.485 3.827h-26.42a2.2 2.2 0 0 1-1.486-3.827 6.125 6.125 0 0 0 1.993-4.51v-9.785c0-7.004 5.698-12.702 12.702-12.702 1.92 0 3.815.434 5.543 1.27a6.23 6.23 0 0 0-.944 3.302 6.274 6.274 0 0 0 6.267 6.267 6.274 6.274 0 0 0 6.266-6.267 6.274 6.274 0 0 0-6.266-6.266 6.242 6.242 0 0 0-4.211 1.63 14.36 14.36 0 0 0-4.015-1.385 3.133 3.133 0 1 0-5.28-.001c-6.681 1.243-11.755 7.116-11.755 14.152v9.786a4.43 4.43 0 0 1-1.443 3.26 3.895 3.895 0 0 0 2.628 6.77z"/></g><g><path fill="#fff" d="M185.658 23.483l-1.657-1.658a.709.709 0 0 1-.208-.502v-2.605h1.42v2.31l1.45 1.45z"/></g><g><path d="M164.043 28.421a.847.847 0 0 0-.847.847v.018a.847.847 0 0 0 1.694.024V29.268a.847.847 0 0 0-.847-.847z"/></g><g><path fill="#1c75bc" d="M173.528 18.954a10.318 10.318 0 0 0-9.514 6.298.847.847 0 1 0 1.555.67l.004-.009a8.627 8.627 0 0 1 7.955-5.265.847.847 0 0 0 .024-1.693h-.024z"/></g><g><path fill="#262262" d="M179.798 61.807h-24.115c-6.109 0-11.078-4.97-11.078-11.078V13.337c0-6.109 4.97-11.078 11.078-11.078h35.822c6.109 0 11.078 4.97 11.078 11.078V39.04h2.122V13.337c0-3.526-1.373-6.84-3.866-9.334a13.114 13.114 0 0 0-9.334-3.866h-35.822c-3.526 0-6.84 1.373-9.334 3.866a13.115 13.115 0 0 0-3.866 9.334v37.392c0 3.526 1.373 6.84 3.866 9.334a13.114 13.114 0 0 0 9.334 3.866h24.115z"/></g><g><g><g/><g clip-path="url(#2koab)"><path fill="#1c75bc" d="M191.592 2.48c6.108 0 11.078 4.97 11.078 11.078v37.393c0 6.108-4.97 11.077-11.078 11.077H155.77c-6.109 0-11.078-4.969-11.078-11.077V13.558c0-6.108 4.97-11.078 11.078-11.078zm9.334 57.805a13.112 13.112 0 0 0 3.866-9.334V13.558c0-3.525-1.373-6.84-3.866-9.334a13.114 13.114 0 0 0-9.334-3.866H155.77c-3.526 0-6.84 1.373-9.334 3.866a13.115 13.115 0 0 0-3.866 9.334v37.393c0 3.526 1.373 6.84 3.866 9.334a13.115 13.115 0 0 0 9.334 3.866h35.822c3.526 0 6.84-1.373 9.334-3.866z"/></g></g></g></g></g></g></svg>