<svg xmlns="http://www.w3.org/2000/svg" width="29" height="32" viewBox="0 0 29 32"><g><g><g><path fill="#788497" d="M20.15 30.33c-4.22 0-7.654-3.433-7.654-7.654a7.657 7.657 0 0 1 7.654-7.653 7.657 7.657 0 0 1 7.653 7.653c0 4.221-3.433 7.654-7.653 7.654zM4.172 25.972a2.182 2.182 0 0 1-2.188-2.195V3.897c0-1.224.97-2.22 2.188-2.22h9.862v4.097A2.872 2.872 0 0 0 16.9 8.646h3.777v5.087c-.195-.006-.351-.026-.52-.026-2.274 0-4.365.873-5.941 2.241H5.944a.653.653 0 0 0-.652.651c0 .359.293.652.652.652h7.06a10.363 10.363 0 0 0-1.146 2.019H5.944a.653.653 0 0 0-.652.651c0 .358.293.652.652.652h5.49a8.768 8.768 0 0 0-.247 2.097c0 1.172.228 2.332.638 3.309H4.172zM15.336 2.66l4.449 4.684H16.9c-.86 0-1.564-.71-1.564-1.57zm6.644 11.243V7.988a.685.685 0 0 0-.189-.449L15.161.576a.661.661 0 0 0-.476-.202H4.172C2.232.374.681 1.957.681 3.898v19.88a3.48 3.48 0 0 0 3.491 3.497h8.298c1.57 2.605 4.423 4.35 7.673 4.35 4.937 0 8.97-4.011 8.97-8.955.006-4.319-3.095-7.927-7.133-8.767z"/></g><g><path fill="#788497" d="M5.944 13.987h6.598a.653.653 0 0 0 .651-.651.653.653 0 0 0-.651-.651H5.944a.653.653 0 0 0-.652.651c0 .358.293.651.652.651z"/></g><g><path fill="#788497" d="M20.612 17.87a.656.656 0 0 0-.475-.21.656.656 0 0 0-.476.21l-3.817 4.096a.649.649 0 0 0 .033.919c.26.247.684.228.931-.033l2.697-2.885v7.112c0 .359.293.652.651.652a.653.653 0 0 0 .652-.652v-7.112l2.677 2.885c.13.137.3.209.475.209a.65.65 0 0 0 .475-1.094z"/></g></g></g></svg>